<svg version="1.1" id="Layer_1" xmlns="http://www.w3.org/2000/svg" xmlns:xlink="http://www.w3.org/1999/xlink" x="0px" y="0px"
	 width="100%" viewBox="0 0 864 800" enable-background="new 0 0 864 800" xml:space="preserve">
<rect x="0" y="0" width="864" height="800" fill="#FFFFFF"/>
<path fill="#000000" opacity="1.000000" stroke="none"
	d="
M542.473267,581.566589
	C551.091919,596.434387 559.457642,611.028992 568.062500,625.481018
	C570.148193,628.984009 569.309021,630.754150 566.021729,632.595154
	C553.234253,639.756470 540.471619,646.968506 527.854065,654.422791
	C523.753723,656.845215 521.594910,656.302124 519.172668,652.066467
	C494.451019,608.836304 469.547699,565.710144 444.680603,522.563171
	C443.875580,521.166443 443.386841,519.445068 441.479645,518.893555
	C439.493500,519.914307 440.246399,521.806946 440.247955,523.291809
	C440.299866,572.948181 440.382568,622.604492 440.554504,672.260559
	C440.568848,676.399414 439.771118,678.909302 434.831329,678.805115
	C420.509949,678.502930 406.182373,678.488464 391.857117,678.373108
	C385.886841,678.325073 385.158630,677.573059 385.157837,671.888428
	C385.154785,649.734741 385.020569,627.580688 385.101990,605.427368
	C385.196899,579.609802 385.483154,553.793091 385.631104,527.975586
	C385.643982,525.732361 386.179565,523.299011 384.123810,521.040649
	C381.604034,523.156738 380.466003,526.116943 378.944611,528.760010
	C355.355804,569.739807 331.810455,610.744629 308.214417,651.720215
	C304.724182,657.781128 304.622375,657.698425 298.708862,654.265869
	C286.753906,647.326416 274.780396,640.418884 262.804138,633.516235
	C257.177277,630.273254 256.987122,629.887573 260.153625,624.391113
	C276.942139,595.248901 293.780243,566.135193 310.581055,537.000061
	C318.068054,524.016479 325.522552,511.014008 332.949432,497.995972
	C333.807983,496.491089 335.348755,495.076324 334.237854,492.914307
	C331.824432,491.884949 330.136597,493.690399 328.394714,494.692871
	C295.193298,513.800232 262.031952,532.977234 228.858109,552.132568
	C220.059784,557.212891 211.179703,562.156372 202.476654,567.394531
	C199.249939,569.336670 197.391373,568.684509 195.623749,565.598816
	C188.090744,552.448364 180.482101,539.341064 172.854752,526.244995
	C170.802673,522.721619 172.374893,520.834473 175.445892,519.071472
	C196.391983,507.046600 217.277557,494.916382 238.196320,482.843781
	C260.123169,470.189514 282.065918,457.562805 303.999298,444.919861
	C305.533691,444.035400 307.372162,443.462036 308.000702,441.261475
	C305.677490,439.532990 303.098846,440.206635 300.724976,440.204773
	C252.566071,440.167084 204.407104,440.191956 156.248154,440.197693
	C148.710190,440.198608 148.720169,440.183685 148.722137,432.751282
	C148.725739,419.086823 148.708420,405.422363 148.715836,391.757904
	C148.719315,385.360870 149.113739,384.932678 155.508636,384.932556
	C201.501205,384.931732 247.493805,384.969482 293.486328,384.933746
	C297.230560,384.930847 301.073730,385.497101 304.749817,384.148895
	C304.881012,381.536652 302.963562,380.903992 301.458893,380.034882
	C260.071747,356.128448 218.678696,332.232208 177.268646,308.365479
	C170.515564,304.473389 170.442200,304.511230 174.286285,297.853485
	C181.282303,285.736725 188.420593,273.700531 195.275192,261.504669
	C197.255692,257.980927 199.143875,257.164093 202.775070,259.273041
	C237.770111,279.597809 272.826752,299.816528 307.871155,320.056274
	C314.936554,324.136902 322.012970,328.198822 329.111755,332.220978
	C330.514893,333.016022 331.936310,334.029602 334.038239,333.382568
	C334.493256,330.647400 332.679596,328.708008 331.510498,326.683960
	C307.685211,285.435150 283.839661,244.197906 259.873535,203.030899
	C257.520233,198.988617 257.816193,196.642578 262.145691,194.342010
	C274.649841,187.697723 286.673859,180.225296 298.449005,172.355087
	C303.794922,168.782028 304.460022,168.896652 307.839966,174.170563
	C329.769653,208.388062 351.616058,242.658997 373.593933,276.845459
	C393.948578,308.507019 414.450409,340.073853 434.852875,371.704712
	C444.136597,386.097717 457.497498,395.824005 471.734467,404.736206
	C525.236389,438.227661 578.639099,471.877563 632.075317,505.474030
	C639.687317,510.259918 647.222717,515.170898 654.905212,519.840149
	C658.308655,521.908691 658.421448,524.060059 656.397949,527.221008
	C648.680298,539.276672 640.905029,551.296204 634.040466,563.881653
	C630.809692,569.804871 630.143433,569.773071 624.440857,566.473511
	C581.632996,541.704224 538.816772,516.949524 495.994263,492.205536
	C494.592438,491.395599 493.252747,490.286194 490.063690,490.838715
	C507.647583,521.265381 524.977844,551.253174 542.473267,581.566589
z"/>
<path fill="#000000" opacity="1.000000" stroke="none"
	d="
M573.031311,367.251953
	C525.028137,365.816040 491.512665,343.236115 472.070496,300.057220
	C466.432709,287.536438 463.664764,274.075531 463.912292,260.226013
	C464.564117,223.756668 465.338135,187.289429 466.116730,150.822479
	C466.270142,143.638168 467.121674,142.854797 474.327972,142.973022
	C488.148499,143.199753 501.966492,143.621719 515.787537,143.753998
	C520.301453,143.797211 522.114136,145.724731 521.982666,150.112488
	C521.095276,179.738205 520.153870,209.363022 519.461609,238.993546
	C519.148193,252.408127 517.792664,265.816132 522.763550,278.996185
	C529.509399,296.882324 549.189026,311.623169 568.425476,311.759003
	C608.575562,312.042419 648.707581,310.917297 688.841797,310.009857
	C692.172729,309.934570 695.506714,310.005707 698.838928,309.976776
	C702.553711,309.944580 704.256775,311.638184 704.220825,315.470398
	C704.125305,325.634949 704.150574,335.802063 704.268860,345.966522
	C704.319153,350.285614 704.833252,354.597992 704.936157,358.918182
	C705.071777,364.610809 703.685547,365.993896 697.966187,366.023895
	C671.803284,366.161041 645.639587,366.186188 619.477478,366.407501
	C604.159058,366.537079 588.843079,366.959534 573.031311,367.251953
z"/>
</svg>
